<?xml version="1.0" standalone="no"?>
<!DOCTYPE svg PUBLIC "-//W3C//DTD SVG 20010904//EN"
 "http://www.w3.org/TR/2001/REC-SVG-20010904/DTD/svg10.dtd">
<svg version="1.0" xmlns="http://www.w3.org/2000/svg"
 width="700.000000pt" height="700.000000pt" viewBox="0 0 700.000000 700.000000"
 preserveAspectRatio="xMidYMid meet">
<metadata>
Created by potrace 1.14, written by Peter Selinger 2001-2017
</metadata>
<g transform="translate(0.000000,700.000000) scale(0.100000,-0.100000)"
fill="#000000" stroke="none">
<path d="M330 3858 l0 -2708 605 0 c477 0 605 3 606 13 0 6 1 633 1 1392 1
822 5 1368 10 1350 11 -36 14 -48 162 -575 64 -228 121 -428 127 -445 15 -47
110 -386 119 -425 5 -19 15 -57 23 -85 13 -44 105 -371 332 -1175 34 -124 93
-333 130 -465 37 -132 80 -284 96 -339 16 -54 29 -100 29 -102 0 -2 236 -4
524 -4 l524 0 -5 23 c-3 12 -19 72 -35 132 -16 61 -31 118 -33 127 -3 15 -26
100 -82 308 -8 30 -16 64 -19 75 -2 11 -33 130 -69 265 -36 135 -78 297 -95
360 -16 63 -66 252 -111 420 -44 168 -82 312 -84 320 -4 16 -65 249 -140 534
-24 94 -43 171 -41 173 2 2 39 6 82 8 165 10 209 15 393 44 36 6 67 9 69 6 2
-2 -1 -33 -7 -69 -10 -60 -9 -73 18 -173 16 -59 48 -182 71 -273 23 -91 46
-178 51 -195 5 -16 31 -115 58 -220 27 -104 66 -253 86 -330 20 -77 38 -147
40 -155 2 -8 10 -40 19 -71 9 -31 19 -66 21 -78 2 -12 14 -56 25 -99 12 -42
23 -84 25 -92 4 -17 54 -210 59 -225 2 -5 7 -30 11 -54 9 -52 18 -38 29 44 4
27 9 51 10 54 2 3 7 33 11 66 3 32 8 62 10 65 2 3 6 24 9 46 2 21 7 50 10 64
3 14 8 43 11 65 3 22 10 65 15 95 18 106 21 125 25 155 3 17 16 100 30 185 14
85 28 166 30 180 2 14 11 68 20 120 23 137 24 141 30 185 3 22 10 63 15 90 5
28 12 66 14 85 3 19 7 44 10 55 4 20 13 82 22 140 2 17 6 41 9 55 7 37 16 92
20 120 2 14 10 66 19 115 8 50 17 106 20 125 3 19 10 58 15 85 5 28 12 70 16
95 3 25 10 68 15 95 5 28 12 68 15 91 3 22 9 60 13 85 l8 44 17 -70 c16 -68
31 -134 41 -185 3 -14 28 -128 56 -255 28 -126 62 -282 76 -345 13 -63 33
-153 44 -200 11 -47 45 -200 75 -340 31 -140 76 -345 101 -455 24 -110 46
-209 48 -220 8 -34 42 -192 91 -410 25 -115 48 -221 51 -235 3 -14 25 -115 50
-225 24 -110 46 -209 48 -220 3 -11 12 -54 21 -95 9 -41 18 -82 19 -90 3 -13
70 -15 525 -18 495 -2 522 -1 517 15 -3 10 -24 95 -46 188 -53 221 -178 733
-187 765 -3 14 -7 30 -8 35 -3 11 -44 177 -112 455 -25 102 -46 192 -48 200
-2 8 -22 92 -45 185 -23 94 -43 175 -45 180 -1 6 -5 21 -8 35 -4 14 -31 126
-61 250 -30 124 -86 353 -125 510 -38 157 -88 359 -110 450 -22 91 -67 275
-100 410 -33 135 -78 319 -100 410 -22 91 -74 305 -116 475 -42 171 -79 319
-81 330 -2 11 -14 61 -27 110 l-22 90 -222 0 c-123 0 -224 3 -224 7 -1 5 -2
11 -4 16 -1 4 -5 25 -9 47 -5 22 -15 67 -23 100 -8 33 -17 70 -19 82 -8 40
-55 166 -92 243 -121 254 -312 435 -576 547 -147 62 -399 115 -610 128 -75 4
-858 9 -983 6 l-23 -1 0 -495 0 -494 298 0 c163 0 306 -2 317 -5 11 -2 40 -7
65 -11 127 -21 248 -85 314 -165 71 -86 126 -217 143 -340 3 -19 8 -62 13 -95
9 -64 6 -409 -4 -460 -3 -16 -9 -46 -13 -65 -8 -45 -7 -38 -22 -85 -75 -222
-214 -308 -528 -328 l-73 -5 -9 37 c-6 20 -19 72 -31 116 -11 44 -22 87 -24
95 -2 8 -14 51 -25 95 -12 44 -23 87 -25 96 -3 9 -32 119 -65 246 -34 127 -64
241 -66 253 -2 13 -15 62 -28 109 -14 47 -37 136 -52 196 -16 61 -32 115 -37
120 -6 6 -142 10 -371 10 l-362 0 -1 583 c-1 320 -4 585 -7 588 -3 3 -275 6
-606 7 l-601 2 0 -2707z"/>
<path d="M6480 5380 c-5 -3 -11 -17 -14 -30 -3 -14 -7 -36 -10 -50 -12 -53
-27 -128 -32 -156 -3 -16 -19 -94 -36 -174 -16 -80 -32 -154 -33 -165 -6 -31
-13 -68 -20 -95 -3 -14 -7 -36 -10 -50 -2 -14 -23 -113 -45 -220 -22 -107 -43
-206 -45 -220 -2 -14 -27 -137 -56 -275 -28 -137 -53 -259 -55 -270 -2 -11 -6
-29 -8 -40 -11 -49 -98 -476 -108 -525 -17 -86 -21 -52 44 -320 22 -91 46
-192 53 -225 19 -82 43 -181 105 -435 28 -118 54 -226 56 -240 3 -14 7 -31 9
-38 4 -11 71 -291 80 -332 1 -8 8 -33 14 -55 5 -22 13 -54 16 -72 3 -18 10
-45 16 -60 6 -15 10 -29 9 -31 -3 -5 63 -277 69 -284 3 -4 35 106 70 245 35
139 78 308 96 377 19 69 64 244 101 390 36 146 95 378 131 515 36 138 66 257
68 265 2 8 15 61 29 117 l26 102 -2 1178 -3 1178 -253 0 c-140 0 -257 -2 -262
-5z"/>
</g>
</svg>
